# xmcd
#
# Track frame offsets: 
#        150
#        16963
#        33018
#        51690
#        74067
#        93679
#        114690
#        136900
#        156369
#        179267
#        207239
#        230347
#        250556
#        268469
#        287995
#        304583
#        321448
#
# Disc length: 4434 seconds
#
# Revision: 1
# Processed by: cddbd v1.5.2PL0 Copyright (c) Steve Scherf et al.
# Submitted via: ExactAudioCopy v0.99pb4
#
DISCID=05115011
DTITLE=Various Artist - World 2006 [CD1) BBC Radio
DYEAR=2006
DGENRE=World
TTITLE0=Kevin Johansen and The Nada - La Falla De San Andres (Argentin
TTITLE0=a)
TTITLE1=Think Of One - Tirar Onda (Belgium - Brazil)
TTITLE2=Gipsy Kings - Rhythmic (France)
TTITLE3=Free Holoe Negro - Caballeros Para El Monte (Cuba)
TTITLE4=Fanfare Ciocarlia - Caravan (Romania)
TTITLE5=Blue Asia - Dao Ruang Dao Roi (Japan - Thailand)
TTITLE6=Oki - Iutaphonic Dub (Japan)
TTITLE7=Nitin Sawnhey - Dead Man (UK - India)
TTITLE8=K'naan - Hoobaale (Somalia - Canada)
TTITLE9=Salif Keita - Yambo (Mali)
TTITLE10=Kronos Quartet feat Asha Bhosle - Chura Liya Hai Tum Ne (You'
TTITLE10=ve Stolen My Heart) (India__USA)
TTITLE11=Sara Tavares - Balance (Portugal)
TTITLE12=Isaar - Azul Claro (Brazil)
TTITLE13=Ulla Pirttuarvi - Gadja Nilla (Finland)
TTITLE14=Umalali feat Sofia Blanco - Nibari (Guatemala)
TTITLE15=Amira Saqati - Sabra Dima (Morocco)
TTITLE16=Tara Fuki - Okamzik (Czech Republic)
EXTD=
EXTT0=
EXTT1=
EXTT2=
EXTT3=
EXTT4=
EXTT5=
EXTT6=
EXTT7=
EXTT8=
EXTT9=
EXTT10=
EXTT11=
EXTT12=
EXTT13=
EXTT14=
EXTT15=
EXTT16=
PLAYORDER=
